<?xml version="1.0" encoding="utf-8"?>
<!-- Generator: Adobe Illustrator 19.2.0, SVG Export Plug-In . SVG Version: 6.00 Build 0)  -->
<svg version="1.1" id="Layer_1" xmlns="http://www.w3.org/2000/svg" xmlns:xlink="http://www.w3.org/1999/xlink" x="0px" y="0px"
	 viewBox="0 0 370.7 400" style="enable-background:new 0 0 370.7 400;" xml:space="preserve">
<style type="text/css">
	.st0{fill:#67B285;}
</style>
<g>
	<path class="st0" d="M328.3,288.2l-63-15.7c-0.2-0.4,0.2-0.7-0.1-1l-18.1-18.8v-18c0-1.6,2.4-3.2,3.9-5
		c17.5-20.2,27.7-47.5,29.3-76.7c0.1-1.2,0-2.3,0-3.5c0.2-3.9,0.3-7.5,0.7-11.2l6.2-62.1c1.9-19.2-4.4-38.9-17.4-53.2
		C256.9,8.7,238.3,0,219,0h-69.6c-19.3,0-37.8,8.7-50.8,23S79.4,56.8,81.3,76l6.2,62.2c0.4,3.7,0.6,7.4,0.8,11.4
		c0.1,1.2,0.1,2.4,0.2,3.5c1.6,29.2,12.6,56.5,30.1,76.7c1.5,1.7,5,5,5,5v18l-19.2,18.8c-0.3,0.3-0.8,0.6-1,1l-62.5,15.7
		C14.2,294.9,0,311.3,0,334.4v45C0,390.6,7.8,400,18.9,400h330.6c11.2,0,21.2-9.4,21.2-20.6v-45c0-23.1-15.2-39.5-41.9-46.2H328.3z
		 M194.4,354.9l5.9,35.3h-32.2l5.9-35C174.6,355.3,193.8,355,194.4,354.9z M201.3,339.4c0,4.8-3.9,8-8.7,8h-16.5
		c-4.8,0-9.8-3.1-9.8-8V327l17.5-11.3l17.5,11.3V339.4z M132.8,243.6c14,10.4,33.9,18.2,52.6,18.2s35-7.8,52.6-18.2v9.1l-52.6,48.6
		l-52.6-48.6V243.6z M207.5,320.4C207.5,320.4,207.5,320.4,207.5,320.4l-15.1-10.1l48-48l13.5,13.5c-4.6,8.2-15.3,27.5-30.4,54.7
		c0,0.1-0.1,0.2-0.3,0.2c-0.2,0-0.3,0-0.4-0.1L207.5,320.4L207.5,320.4z M103.6,29.6c11.1-12.3,27.1-19.9,43.7-19.9h73.9
		c16.6,0,32.5,7.5,43.7,19.9c11.1,12.3,16.6,29.1,14.9,45.6l-3.9,48.6c-9.3-22.1-19.8-42.9-20.4-43.7c-2.2-3-6.3-3.7-9.4-1.6
		c-18,12.3-98.2,13.9-127.6,13.4c-2,0-3.9,0.8-5.2,2.3c-8.4,9.4-14.7,27.4-19.6,36.6l-5.1-55.4c-1.7-16.5,3.8-33.3,14.9-45.6
		L103.6,29.6z M96,151.3c-0.1-1.2-0.1-2.4-0.2-3.6c0-0.8-0.1-1.7-0.1-2.5c1.5-4.2,10.1-27.4,25.7-45.9c19,0.2,96.7,0,126.5-12.6
		c5.9,9.3,18.3,31,24.9,58.3c0,0.9-0.1,1.8-0.1,2.7c-0.1,1.2-0.1,2.5-0.2,3.7c-3.2,57.6-41.9,102.7-88.2,102.7S99.2,208.9,96,151.3z
		 M127,260.4l50.7,50.7l-15.9,10.6c0,0,0,0,0,0l-16.3,10.8c0,0-0.2,0.1-0.4,0.1c-0.2,0-0.2-0.2-0.3-0.2
		c-16-28.7-27.3-49.1-32.1-57.8L127,260.4L127,260.4z M10,382.1v-48.5c0-18.4,10.2-30.6,31.6-36.2l63.9-16.9
		c3.8,7.2,11.5,22.2,28.1,53.5c1.8,3.5,4.9,6,8.6,7c1.1,0.3,2.1,0.4,3.2,0.4c2.7,0,4.8-0.8,7.1-2.4l4-3.2v1.8
		c0,6.4,3.1,12.3,7.3,16.2l-5.4,36.5H69v-37.9c0-3.8-1.3-7-5-7s-4.2,3.1-4.2,7v37.9H16C11.9,390.2,10,386.4,10,382.1z M361.9,382
		c0,4.5-3.9,8.3-8.1,8.3h-42.1v-38.9c0-3.9-0.7-7.1-4.4-7.1s-4.8,3.2-4.8,7.1v38.9h-93.1l-5.9-37.4c4.2-4.1,6.9-10.1,6.9-16.7v-1.9
		l4.6,3.3c2.3,1.6,5,2.5,7.7,2.5c1.1,0,2.2-0.1,3.2-0.4c3.7-1,6.9-3.6,8.8-7.1c16.7-32.1,24.8-47.5,28.6-54.9l65.7,17.3
		c21.8,5.8,33.3,18.3,33.3,37.2v49.8L361.9,382z"/>
</g>
</svg>
