<?xml version="1.0" encoding="utf-8"?>
<!-- Generator: Adobe Illustrator 19.1.1, SVG Export Plug-In . SVG Version: 6.00 Build 0)  -->
<svg version="1.1" id="Camada_1" xmlns="http://www.w3.org/2000/svg" xmlns:xlink="http://www.w3.org/1999/xlink" x="0px" y="0px"
	 viewBox="0 0 200 200" style="enable-background:new 0 0 200 200;" xml:space="preserve">
<style type="text/css">
	.st0{fill:#FFFFFF;}
	.st1{fill:#D2D3D5;}
</style>
<g>
	<g>
		<path class="st0" d="M127.3,137.8c-14.7,0-23.1-11.2-23.1-30.8c0-20.3,10-35.6,29.7-45.6c2.2-1.1,5-0.2,6.1,2.1l5,10.3
			c0.5,1.1,0.6,2.4,0.2,3.6s-1.3,2.2-2.3,2.8c-9.4,4.5-14.2,10.5-15,18.8c10.9,0.3,18.7,8,18.7,18.5
			C146.6,129.5,138.7,137.8,127.3,137.8z M135.8,66.1c-17.6,9.1-26.5,22.8-26.5,40.9c0,11.8,3.1,25.8,18,25.8
			c8.5,0,14.3-6.1,14.3-15.3c0-8-5.9-13.5-14.3-13.5c-0.3,0-0.9,0-1,0l-3.6,1.8l0.1-4.1c0-11.7,5.8-20.2,17.7-25.9L135.8,66.1z
			 M76.9,137.8c-14.7,0-23.1-11.2-23.1-30.8c0-20.3,10-35.6,29.7-45.6c2.2-1.1,5-0.2,6.1,2.1l5,10.3c1.1,2.2,0.1,5.2-2.1,6.4
			c-9.4,4.5-14.2,10.5-15,18.8c10.9,0.3,18.7,8,18.7,18.5C96.2,129.5,88.3,137.8,76.9,137.8z M85.4,66.1
			C67.8,75.2,58.9,88.9,58.9,107c0,11.8,3.1,25.8,18,25.8c8.5,0,14.3-6.1,14.3-15.3c0-8-5.9-13.5-14.3-13.5c-0.3,0-0.9,0-1,0
			l-3.6,1.8l0.1-4.1c0-11.7,5.8-20.2,17.7-25.9L85.4,66.1z"/>
	</g>
	<g>
		<circle class="st1" cx="100" cy="100" r="88.7"/>
		<path class="st0" d="M100,200C44.9,200,0,155.1,0,100S44.9,0,100,0s100,44.9,100,100S155.1,200,100,200z M100,22.5
			c-42.7,0-77.4,34.7-77.4,77.4s34.7,77.4,77.4,77.4s77.4-34.7,77.4-77.4S142.7,22.5,100,22.5z"/>
	</g>
	<g>
		<path class="st0" d="M127.3,137.8c-14.7,0-23.1-11.2-23.1-30.8c0-20.3,10-35.6,29.7-45.6c2.2-1.1,5-0.2,6.1,2.1l5,10.3
			c0.5,1.1,0.6,2.4,0.2,3.6s-1.3,2.2-2.3,2.8c-9.4,4.5-14.2,10.5-15,18.8c10.9,0.3,18.7,8,18.7,18.5
			C146.6,129.5,138.7,137.8,127.3,137.8z M135.8,66.1c-17.6,9.1-26.5,22.8-26.5,40.9c0,11.8,3.1,25.8,18,25.8
			c8.5,0,14.3-6.1,14.3-15.3c0-8-5.9-13.5-14.3-13.5c-0.3,0-0.9,0-1,0l-3.6,1.8l0.1-4.1c0-11.7,5.8-20.2,17.7-25.9L135.8,66.1z
			 M76.9,137.8c-14.7,0-23.1-11.2-23.1-30.8c0-20.3,10-35.6,29.7-45.6c2.2-1.1,5-0.2,6.1,2.1l5,10.3c1.1,2.2,0.1,5.2-2.1,6.4
			c-9.4,4.5-14.2,10.5-15,18.8c10.9,0.3,18.7,8,18.7,18.5C96.2,129.5,88.3,137.8,76.9,137.8z M85.4,66.1
			C67.8,75.2,58.9,88.9,58.9,107c0,11.8,3.1,25.8,18,25.8c8.5,0,14.3-6.1,14.3-15.3c0-8-5.9-13.5-14.3-13.5c-0.3,0-0.9,0-1,0
			l-3.6,1.8l0.1-4.1c0-11.7,5.8-20.2,17.7-25.9L85.4,66.1z"/>
	</g>
</g>
</svg>
