<?xml version="1.0" encoding="utf-8"?>
<!-- Generator: Adobe Illustrator 19.2.0, SVG Export Plug-In . SVG Version: 6.00 Build 0)  -->
<svg version="1.1" id="Camada_1" xmlns="http://www.w3.org/2000/svg" xmlns:xlink="http://www.w3.org/1999/xlink" x="0px" y="0px"
	 viewBox="0 0 40.7 33.7" style="enable-background:new 0 0 40.7 33.7;" xml:space="preserve">
<style type="text/css">
	.st0{fill:#67B285;}
</style>
<g>
	<g>
		<path class="st0" d="M40.7,6.7c-5.8,2.5-8.7,6-8.7,11.4c0.4-0.1,0.7-0.1,1-0.1c4.3,0,7.8,2.9,7.8,7.4c0,5-3.2,8.3-7.8,8.3
			c-6.3,0-9.6-4.9-9.6-13.2c0-9,4.5-16,14.1-20.6L40.7,6.7z M17.3,6.7c-5.8,2.5-8.7,6-8.7,11.4C8.9,18,9.3,18,9.6,18
			c4.3,0,7.8,2.9,7.8,7.4c0,5-3.2,8.3-7.8,8.3C3.2,33.7,0,28.8,0,20.6c0-9,4.5-16,14.1-20.6L17.3,6.7z"/>
	</g>
</g>
</svg>
