<?xml version="1.0" encoding="utf-8"?>
<!-- Generator: Adobe Illustrator 19.2.0, SVG Export Plug-In . SVG Version: 6.00 Build 0)  -->
<svg version="1.1" id="Layer_1" xmlns="http://www.w3.org/2000/svg" xmlns:xlink="http://www.w3.org/1999/xlink" x="0px" y="0px"
	 viewBox="0 0 177.5 177.5" style="enable-background:new 0 0 177.5 177.5;" xml:space="preserve">
<style type="text/css">
	.st0{fill:#90CFAF;stroke:#FFFFFF;stroke-width:10;stroke-miterlimit:10;}
	.st1{fill:#989A9B;stroke:#3C3F41;stroke-width:2;stroke-linecap:round;stroke-linejoin:round;stroke-miterlimit:10;}
	.st2{fill:none;stroke:#3A3D3F;stroke-width:4;stroke-miterlimit:10;}
	.st3{fill:none;stroke:#3A3D3F;stroke-width:2;stroke-miterlimit:10;}
	.st4{fill:#FFFFFF;stroke:#3A3D3F;stroke-width:2;stroke-miterlimit:10;}
</style>
<circle class="st0" cx="88.7" cy="88.8" r="83.7"/>
<g>
	<path class="st1" d="M65,53.3l-3.4-3.5c0,0,8.9-11.3,27-11.3c0,0,15-0.8,26.8,11.1L109,57c0,0-7.3-8.4-20.3-8.4
		c0,0-10-1.5-19.7,8.2l-3.4-3L65,53.3z"/>
	<path class="st2" d="M53.5,79c0,0-0.5-16.1,11.5-25.6"/>
	<path class="st2" d="M123.8,79c0,0,0.5-16.1-11.5-25.6"/>
	<path class="st3" d="M50.9,79c-3.3,0-5.9,2.6-5.9,5.9v25.3c0,3.3,2.6,5.9,5.9,5.9h7.3V79H50.9z"/>
	<path class="st3" d="M45,88.4c0,0-9.8,7.3,0,17.1V88.4z"/>
	<path class="st3" d="M50.9,79c-3.3,0-5.9,2.6-5.9,5.9v25.3c0,3.3,2.6,5.9,5.9,5.9h7.3V79H50.9z"/>
	<path class="st3" d="M45,88.4c0,0-9.8,7.3,0,17.1V88.4z"/>
	<path class="st3" d="M50.9,79c-3.3,0-5.9,2.6-5.9,5.9v25.3c0,3.3,2.6,5.9,5.9,5.9h7.3V79H50.9z"/>
	<path class="st3" d="M45,88.4c0,0-9.8,7.3,0,17.1V88.4z"/>
	<path class="st3" d="M50.9,79c-3.3,0-5.9,2.6-5.9,5.9v25.3c0,3.3,2.6,5.9,5.9,5.9h7.3V79H50.9z"/>
	<path class="st3" d="M45,88.4c0,0-9.8,7.3,0,17.1V88.4z"/>
	<path class="st3" d="M50.9,79c-3.3,0-5.9,2.6-5.9,5.9v25.3c0,3.3,2.6,5.9,5.9,5.9h7.3V79H50.9z"/>
	<path class="st3" d="M45,88.4c0,0-9.8,7.3,0,17.1V88.4z"/>
	<path class="st3" d="M50.9,79c-3.3,0-5.9,2.6-5.9,5.9v25.3c0,3.3,2.6,5.9,5.9,5.9h7.3V79H50.9z"/>
	<path class="st3" d="M45,88.4c0,0-9.8,7.3,0,17.1V88.4z"/>
	<path class="st3" d="M50.9,79c-3.3,0-5.9,2.6-5.9,5.9v25.3c0,3.3,2.6,5.9,5.9,5.9h7.3V79H50.9z"/>
	<path class="st3" d="M45,88.4c0,0-9.8,7.3,0,17.1V88.4z"/>
	<path class="st3" d="M50.9,79c-3.3,0-5.9,2.6-5.9,5.9v25.3c0,3.3,2.6,5.9,5.9,5.9h7.3V79H50.9z"/>
	<path class="st3" d="M45,88.4c0,0-9.8,7.3,0,17.1V88.4z"/>
	<path class="st3" d="M50.9,79c-3.3,0-5.9,2.6-5.9,5.9v25.3c0,3.3,2.6,5.9,5.9,5.9h7.3V79H50.9z"/>
	<path class="st3" d="M45,88.4c0,0-9.8,7.3,0,17.1V88.4z"/>
	<path class="st3" d="M50.9,79c-3.3,0-5.9,2.6-5.9,5.9v25.3c0,3.3,2.6,5.9,5.9,5.9h7.3V79H50.9z"/>
	<path class="st3" d="M45,88.4c0,0-9.8,7.3,0,17.1V88.4z"/>
	<path class="st3" d="M50.9,79c-3.3,0-5.9,2.6-5.9,5.9v25.3c0,3.3,2.6,5.9,5.9,5.9h7.3V79H50.9z"/>
	<path class="st3" d="M45,88.4c0,0-9.8,7.3,0,17.1V88.4z"/>
	<path class="st4" d="M50.9,79c-3.3,0-5.9,2.6-5.9,5.9v25.3c0,3.3,2.6,5.9,5.9,5.9h7.3V79H50.9z"/>
	<path class="st1" d="M45,88.4c0,0-9.8,7.3,0,17.1V88.4z"/>
	<path class="st4" d="M126.5,79c3.3,0,5.9,2.6,5.9,5.9v25.3c0,3.3-2.6,5.9-5.9,5.9h-7.3V79H126.5z"/>
	<path class="st1" d="M132.4,88.4c0,0,9.8,7.3,0,17.1V88.4z"/>
	<path class="st1" d="M60.4,119L60.4,119c1.2,0,2.2-1,2.2-2.2V79c0-1.2-1-2.2-2.2-2.2l0,0c-1.2,0-2.2,1-2.2,2.2v37.7
		C58.2,118,59.2,119,60.4,119z"/>
	<path class="st1" d="M117,118.9L117,118.9c1.2,0,2.2-1,2.2-2.2V79c0-1.2-1-2.2-2.2-2.2l0,0c-1.2,0-2.2,1-2.2,2.2v37.7
		C114.8,117.9,115.8,118.9,117,118.9z"/>
</g>
</svg>
