<?xml version="1.0" encoding="utf-8"?>
<!-- Generator: Adobe Illustrator 19.2.0, SVG Export Plug-In . SVG Version: 6.00 Build 0)  -->
<svg version="1.1" id="Layer_1" xmlns="http://www.w3.org/2000/svg" xmlns:xlink="http://www.w3.org/1999/xlink" x="0px" y="0px"
	 viewBox="0 0 177.5 177.5" style="enable-background:new 0 0 177.5 177.5;" xml:space="preserve">
<style type="text/css">
	.st0{fill:#D57631;stroke:#FFFFFF;stroke-width:10;stroke-miterlimit:10;}
	.st1{fill:#989A9B;stroke:#3C3F41;stroke-width:3;stroke-linecap:round;stroke-linejoin:round;stroke-miterlimit:10;}
	.st2{fill:none;stroke:#3C3F41;stroke-width:3;stroke-linecap:round;stroke-linejoin:round;stroke-miterlimit:10;}
	.st3{fill:#FFFFFF;stroke:#3C3F41;stroke-width:3;stroke-linecap:round;stroke-linejoin:round;stroke-miterlimit:10;}
</style>
<circle class="st0" cx="88.7" cy="88.8" r="83.7"/>
<g>
	<path class="st1" d="M77.8,107.7V121c0,6.2,4.8,10.3,11,10.3s10.6-4.1,10.6-10.3v-14"/>
	<line class="st2" x1="62.5" y1="46.3" x2="67" y2="50.7"/>
	<line class="st2" x1="111.9" y1="50.7" x2="116.3" y2="46.3"/>
	<line class="st2" x1="62.5" y1="104.5" x2="67" y2="100.1"/>
	<line class="st2" x1="111.9" y1="100.1" x2="116.3" y2="104.5"/>
	<line class="st2" x1="47.3" y1="75.4" x2="54.5" y2="75.4"/>
	<line class="st2" x1="122.9" y1="75.4" x2="130.1" y2="75.4"/>
	<path class="st3" d="M108.5,56.4c-10.5-10.5-27.5-10.5-38,0s-10.7,27.5-0.2,38c2.3,2.3,4,4,7.6,5.3v7.9h21.5v-7.9
		c3.6-1.3,6.1-3,8.5-5.3C118.3,83.9,119,66.9,108.5,56.4z"/>
	<path class="st2" d="M76.8,88.1c-3.4-3.4-5.3-7.9-5.3-12.7c0-4.8,1.9-9.3,5.3-12.7"/>
	<line class="st2" x1="79.4" y1="117.3" x2="97.8" y2="117.3"/>
	<line class="st2" x1="79.4" y1="112.6" x2="97.8" y2="112.6"/>
</g>
</svg>
